/* XPM */
static char * alert_xpm[] = {
"20 28 2 1",
" 	c #FFFFFF",
".	c #000000",
"....................",
"....................",
"....................",
"........    ........",
"........ .. ........",
".......  ..  .......",
"....... .... .......",
"......  ....  ......",
"...... ..  .. ......",
".....  ..  ..  .....",
"..... ...  ... .....",
"....  ...  ...  ....",
".... ....  .... ....",
"...  ....  ....  ...",
"... .....  ..... ...",
"..  .....  .....  ..",
".. .............. ..",
".  ......  ......  .",
". .......  ....... .",
"  .......  .......  ",
" .................. ",
" .................. ",
"                    ",
"....................",
"....................",
"....................",
"....................",
"...................."};
