/* XPM */
static char * barre_defilement_1item_xpm[] = {
"4 10 3 1",
" 	c None",
".	c #000000",
"+	c #FFFFFF",
"....",
".+++",
".+++",
".+++",
".+++",
".+++",
".+++",
".+++",
".+++",
"...."};
