/* XPM */
static char * done_xpm[] = {
"20 28 2 1",
" 	c #000000",
".	c #FFFFFF",
"                    ",
"                    ",
"                    ",
"                    ",
"      ........      ",
"    ...      ...    ",
"   ..          ..   ",
"  ..            ..  ",
" ..              .. ",
" .                . ",
"..                ..",
".              .   .",
".             ..   .",
".            ..    .",
".     .     ..     .",
".     ..   ..      .",
".      .. ..       .",
".       ...        .",
"..       .        ..",
" .                . ",
" ..              .. ",
"  ..            ..  ",
"   ..          ..   ",
"    ...      ...    ",
"      ........      ",
"                    ",
"                    ",
"                    "};
