/* XPM */
static char *xpm__0007_jauge_infini_8[] = {
/* columns rows colors chars-per-pixel */
"36 36 2 1 ",
"  c black",
". c white",
/* pixels */
"                                    ",
"                                    ",
"                                    ",
"                                    ",
"                                    ",
"                                    ",
"                                    ",
"                                    ",
"                                    ",
"           .............            ",
"            .         .             ",
"            . ....... .             ",
"            . ....... .             ",
"            . ....... .             ",
"            .  .....  .             ",
"             .  ...  .              ",
"              .  .  .               ",
"               .   .                ",
"              .     .               ",
"             .       .              ",
"            .         .             ",
" ........... ......... ............ ",
" ........... .... .... ............ ",
" ........... ...   ... ............ ",
" ........... ......... ............ ",
" ..........             ........... ",
" .................................. ",
" .................................. ",
" .................................. ",
" .................................. ",
" .................................. ",
" .................................. ",
" .................................. ",
" .................................. ",
" .................................. ",
"                                    "
};
