/* XPM */
static char *xpm__0011_jauge_infini_12[] = {
/* columns rows colors chars-per-pixel */
"36 36 2 1 ",
"  c black",
". c white",
/* pixels */
"                                    ",
"                                    ",
"                                    ",
"                                    ",
"                                    ",
"                                    ",
"                                    ",
"                                    ",
"                                    ",
"           .............            ",
"            .         .             ",
"            . ....... .             ",
"            . ....... .             ",
" ........... .       . ............ ",
" ........... ..     .. ............ ",
" ............ ..   .. ............. ",
" ............. .. .. .............. ",
" .............. ... ............... ",
" ............. ..... .............. ",
" ............ ....... ............. ",
" ........... ......... ............ ",
" ........... ......... ............ ",
" ........... .... .... ............ ",
" ........... ...   ... ............ ",
" ........... ......... ............ ",
" ..........             ........... ",
" .................................. ",
" .................................. ",
" .................................. ",
" .................................. ",
" .................................. ",
" .................................. ",
" .................................. ",
" .................................. ",
" .................................. ",
"                                    "
};
