<?xml version="1.0" encoding="utf-8"?>
<!-- Generator: Adobe Illustrator 18.1.0, SVG Export Plug-In . SVG Version: 6.00 Build 0)  -->
<svg version="1.2" baseProfile="tiny" xmlns="http://www.w3.org/2000/svg" xmlns:xlink="http://www.w3.org/1999/xlink" x="0px"
	 y="0px" viewBox="0 0 64 54" xml:space="preserve">
<g id="Calque_4">
	<rect x="-223" y="-9" fill="none" width="510.2" height="72"/>
</g>
<g id="zonning" display="none">
</g>
<g id="Calque_1">
	<g>
		<rect x="4" y="5" fill="#003671" width="55" height="42"/>
		<polygon fill="#FFFFFF" points="4,19 15.4,18.9 4,11 4,5 10.6,5 26.8,17 26.8,5 36.2,5 36.2,17 52.4,5 59,5 59,10 47.6,19 59,19 
			59,33 47.6,33 59,41 59,47 52.5,47 36.2,35 36.2,47 26.8,47 26.8,35 10.6,47 4,47 4,41 16.3,33 4,33 		"/>
		<g>
			<polygon fill="#DB2F34" points="55.2,5 36.2,19 41,19 59,5 			"/>
			<polygon fill="#DB2F34" points="59,47 40,33 44.8,33 59,43 			"/>
			<polygon fill="#DB2F34" points="22,19 4,5 4,9 17.3,19 			"/>
			<polygon fill="#DB2F34" points="22,33 4.9,46 8.7,46 26.8,33 			"/>
			<polygon fill="#DB2F34" points="4,22 28.7,22 28.7,5 34.3,5 34.3,22 59,22 59,30 34.3,30 34.3,47 28.7,47 28.7,30 4,30 			"/>
		</g>
	</g>
</g>
<g id="new">
</g>
</svg>
