<?xml version="1.0" encoding="utf-8"?>
<!-- Generator: Adobe Illustrator 18.1.0, SVG Export Plug-In . SVG Version: 6.00 Build 0)  -->
<svg version="1.2" baseProfile="tiny" xmlns="http://www.w3.org/2000/svg" xmlns:xlink="http://www.w3.org/1999/xlink" x="0px"
	 y="0px" viewBox="0 0 74 54" xml:space="preserve">
<g id="Calque_4">
	<rect x="-341" y="-9" fill="none" width="510.2" height="72"/>
	<g>
		<polygon fill="#666666" points="29.6,38.7 26.9,46.8 18.3,46.8 32.4,7.2 37,7.2 37,4 3,4 3,52 37,52 37,38.7 		"/>
		<polygon fill="#666666" points="37,16 32,32 37,32 37,16 		"/>
		<polygon fill="#FFFFFF" points="37,16 37,32 42,32 		"/>
		<polygon fill="#FFFFFF" points="37,4 37,7.2 41.7,7.2 55.7,46.8 46.8,46.8 44.2,38.7 37,38.7 37,52 71,52 71,4 		"/>
		<polygon fill="#FFFFFF" points="18,47 27,47 30,39 37,39 37,32 32,32 37,16 37,16 37,7 32,7 		"/>
		<polygon fill="#666666" points="42,32 37,32 37,39 44,39 47,47 56,47 42,7 37,7 37,16 		"/>
	</g>
	<path fill="#666666" d="M71,4v48H37H3V4h34H71 M72,3h-1H37H3H2v1v48v1h1h34h34h1v-1V4V3L72,3z"/>
</g>
<g id="zonning" display="none">
</g>
<g id="Calque_1">
</g>
<g id="new">
</g>
</svg>
