/* XPM */
static char *icosmall_erreur_outline[] = {
/* columns rows colors chars-per-pixel */
"18 18 2 1 ",
"  c black",
". c white",
/* pixels */
"        ..        ",
"       .  .       ",
"       .  .       ",
"      .    .      ",
"      .    .      ",
"     .  ..  .     ",
"     .  ..  .     ",
"    .   ..   .    ",
"    .   ..   .    ",
"   .    ..    .   ",
"   .    ..    .   ",
"  .     ..     .  ",
"  .            .  ",
" .      ..      . ",
" .      ..      . ",
".                .",
".                .",
" ................ "
};
