/* XPM */
static char *icoBig_logoOrange[] = {
/* columns rows colors chars-per-pixel */
"36 36 2 1 ",
"  c white",
". c black",
/* pixels */
"....................................",
".                                  .",
".                                  .",
".                                  .",
".                                  .",
".                                  .",
".                                  .",
".                                  .",
".                                  .",
".                                  .",
".                                  .",
".                                  .",
".                                  .",
".                                  .",
".                                  .",
".                                  .",
".                                  .",
".                                  .",
".                                  .",
".                                  .",
".                                  .",
".                                  .",
".                                  .",
".                                  .",
".                                  .",
".                              . . .",
".                               .. .",
".   ..  . . ...  ...   ..   ..     .",
".  .  . ..     . .  . .  . .  .    .",
".  .  . .    ... .  . .  . ....    .",
".  .  . .   .  . .  . .  . .       .",
".   ..  .   .... .  .  ...  ...    .",
".                        .         .",
".                     ...          .",
".                                  .",
"...................................."
};
