/* XPM */
static char *icosmall_internet[] = {
/* columns rows colors chars-per-pixel */
"18 18 2 1 ",
"  c black",
". c white",
/* pixels */
"       ......     ",
"     .....  ...   ",
"    .....      .  ",
"   ......       . ",
"   .........    . ",
"  .....   ..   ...",
"  ....        ....",
"  ....      ......",
"  ....      ......",
"  ......     .....",
"  .......    .....",
"   ......     ... ",
"   .......   .... ",
"    ....... ....  ",
"     ..........   ",
"       ......     ",
"                  ",
"                  "
};
