/* XPM */
static char *icosmall_telephone[] = {
/* columns rows colors chars-per-pixel */
"18 18 2 1 ",
"  c black",
". c white",
/* pixels */
"    ...           ",
"   .....          ",
"  ......          ",
"  ......          ",
"  ......          ",
"  .....           ",
"   ...            ",
"   ...            ",
"    ...           ",
"    ....          ",
"     ....    .... ",
"      ....  ......",
"       ...........",
"        ..........",
"          ....... ",
"            ....  ",
"                  ",
"                  "
};
