/* XPM */
static char * separartuer_menu2_xpm[] = {
"1 36 4 1",
" 	c #000000",
".	c #FFFFFF",
"+	c #323232",
"@	c #191919",
" ",
".",
" ",
".",
" ",
".",
" ",
".",
" ",
".",
"+",
".",
" ",
".",
" ",
".",
" ",
".",
" ",
".",
" ",
".",
"@",
".",
" ",
".",
" ",
".",
" ",
".",
" ",
".",
" ",
".",
" ",
"."};
