/* XPM */
static char *icoBig_check[] = {
/* columns rows colors chars-per-pixel */
"36 36 2 1 ",
"  c black",
". c white",
/* pixels */
"                                    ",
"                                    ",
"                                    ",
"                                    ",
"                                    ",
"                                    ",
"                                    ",
"                                    ",
"                                    ",
"                                    ",
"                                    ",
"                                    ",
"                               ..   ",
"                              ...   ",
"                             ...    ",
"                            ...     ",
"                           ...      ",
"                          ...       ",
"      ..                 ...        ",
"      ...               ...         ",
"       ...             ...          ",
"        ...           ...           ",
"         ...         ...            ",
"          ...       ...             ",
"           ...     ...              ",
"            ...   ...               ",
"             ... ...                ",
"              .....                 ",
"               ...                  ",
"                .                   ",
"                                    ",
"                                    ",
"                                    ",
"                                    ",
"                                    ",
"                                    "
};
